<svg xmlns:svg="http://www.w3.org/2000/svg" xmlns="http://www.w3.org/2000/svg" version="1.1" viewBox="0 0 100 125" xml:space="preserve" x="0px" y="0px"><g transform="matrix(0.1693068,-0.1693068,0.1693068,0.1693068,2860.1208,3139.2228)" style="" fill-rule="evenodd" stroke-width="0.50099999" stroke-linejoin="bevel"><path d="m 3415.6431,-9845.9676 0,-332.9224 288.3192,166.461 z" transform="matrix(0.43079962,0,0,0.43079962,-509.93594,-13113.01)" style="" fill="#000000" fill-opacity="1" fill-rule="evenodd" stroke="none"/><path d="m 794.4375,-17451.844 c 0,68.906 0,137.813 0,206.719 l 51,0 0,-155.75 155.75,0 0,-50.969 c -68.91667,0 -137.83333,0 -206.75,0 z" style="" fill="#000000" fill-opacity="1" fill-rule="evenodd" stroke="none"/><path d="m 3415.6431,-9845.9676 0,-332.9224 288.3192,166.461 z" transform="matrix(0,0.43079962,-0.43079962,0,-3493.4102,-18756.236)" style="" fill="#000000" fill-opacity="1" fill-rule="evenodd" stroke="none"/></g><path d="m 6.4591037,43.898121 0,12.203812 47.1363253,0 0,-12.203812 z" style="" fill="#000000" fill-opacity="1" fill-rule="evenodd" stroke="none"/></svg>