<?xml version="1.0" encoding="UTF-8"?>
<!-- Generator: Adobe Illustrator 15.0.2, SVG Export Plug-In . SVG Version: 6.00 Build 0)  -->
<!DOCTYPE svg PUBLIC "-//W3C//DTD SVG 1.1//EN" "http://www.w3.org/Graphics/SVG/1.1/DTD/svg11.dtd">
<svg xmlns="http://www.w3.org/2000/svg" xmlns:xlink="http://www.w3.org/1999/xlink" version="1.1" id="Layer_1" x="0px" y="0px" width="32px" height="32px" viewBox="0 0 512 511.854" enable-background="new 0 0 512 511.854" xml:space="preserve"  fill="#696969">
<g>
	<path fill="#696969" d="M511.71,403.946c-1.222-7.543-5.95-13.993-13.043-17.829l-104.851-61.771l-0.857-0.486   c-4.243-2.171-9.143-3.293-14.172-3.293c-8.785,0-17.168,3.329-22.996,9.165l-30.943,30.964c-1.328,1.258-5.643,3.079-6.95,3.144   c-0.356-0.029-36.007-2.593-101.64-68.236c-65.515-65.501-68.294-101.258-68.315-101.258c0.036-1.829,1.836-6.129,3.115-7.461   l26.389-26.383c9.301-9.317,12.086-24.768,6.572-36.732L125.735,14.104C121.5,5.386,113.271,0,104.143,0   c-6.457,0-12.689,2.679-17.561,7.543L14.646,79.318C7.749,86.18,1.81,98.176,0.513,107.829   c-0.628,4.614-13.393,114.783,137.651,265.846c128.227,128.215,228.213,138.18,255.823,138.18l0,0c5.937,0,9.4-0.422,10.064-0.521   c9.622-1.286,21.607-7.215,28.458-14.079l71.879-71.872C510.26,419.489,512.932,411.696,511.71,403.946z"/>
</g>
</svg>
